<svg xmlns="http://www.w3.org/2000/svg" xmlns:xlink="http://www.w3.org/1999/xlink" contentStyleType="text/css" height="670px" preserveAspectRatio="none" style="width:596px;height:670px;background:#FFFFFF;" version="1.1" viewBox="0 0 596 670" width="596px" zoomAndPan="magnify"><defs/><g><!--cluster d77d5e503ad1439f585ac494268b351b--><g id="cluster_d77d5e503ad1439f585ac494268b351b"><polygon fill="none" points="163,16,173,6,579,6,579,196.08,569,206.08,163,206.08,163,16" style="stroke:#181818;stroke-width:1.0;"/><line style="stroke:#181818;stroke-width:1.0;" x1="569" x2="579" y1="16" y2="6"/><line style="stroke:#181818;stroke-width:1.0;" x1="163" x2="569" y1="16" y2="16"/><line style="stroke:#181818;stroke-width:1.0;" x1="569" x2="569" y1="16" y2="206.08"/><text fill="#000000" font-family="sans-serif" font-size="14" font-weight="bold" lengthAdjust="spacing" textLength="21" x="356.5" y="31.9951">Db</text></g><!--cluster 2567a5ec9705eb7ac2c984033e06189d--><g id="cluster_2567a5ec9705eb7ac2c984033e06189d"><polygon fill="none" points="16,48.59,26,38.59,139,38.59,139,552.37,129,562.37,16,562.37,16,48.59" style="stroke:#181818;stroke-width:1.0;"/><line style="stroke:#181818;stroke-width:1.0;" x1="129" x2="139" y1="48.59" y2="38.59"/><line style="stroke:#181818;stroke-width:1.0;" x1="16" x2="129" y1="48.59" y2="48.59"/><line style="stroke:#181818;stroke-width:1.0;" x1="129" x2="129" y1="48.59" y2="562.37"/><text fill="#000000" font-family="sans-serif" font-size="14" font-weight="bold" lengthAdjust="spacing" textLength="35" x="56" y="64.5851">Web</text></g><!--entity 355aeb7ac3f8fa43e8d94fbf0e4b8d6c--><g id="elem_355aeb7ac3f8fa43e8d94fbf0e4b8d6c"><rect fill="#F1F1F1" height="144.0781" rx="2.5" ry="2.5" style="stroke:#181818;stroke-width:0.5;" width="384" x="179" y="46"/><rect fill="#F1F1F1" height="10" style="stroke:#181818;stroke-width:0.5;" width="15" x="543" y="51"/><rect fill="#F1F1F1" height="2" style="stroke:#181818;stroke-width:0.5;" width="4" x="541" y="53"/><rect fill="#F1F1F1" height="2" style="stroke:#181818;stroke-width:0.5;" width="4" x="541" y="57"/><text fill="#000000" font-family="sans-serif" font-size="14" font-weight="bold" lengthAdjust="spacing" textLength="20" x="194" y="78.9951">db</text><text fill="#000000" font-family="sans-serif" font-size="14" lengthAdjust="spacing" textLength="4" x="194" y="95.292">&#160;</text><text fill="#000000" font-family="sans-serif" font-size="14" lengthAdjust="spacing" textLength="113" x="194" y="111.5889">image: postgres</text><text fill="#000000" font-family="sans-serif" font-size="14" lengthAdjust="spacing" textLength="292" x="194" y="127.8857">environment: POSTGRES_USER=postgres</text><text fill="#000000" font-family="sans-serif" font-size="14" lengthAdjust="spacing" textLength="344" x="194" y="144.1826">environment: POSTGRES_PASSWORD=secret123</text><text fill="#000000" font-family="sans-serif" font-size="14" lengthAdjust="spacing" textLength="303" x="194" y="160.4795">environment: POSTGRES_DB=dmu_whonet</text><text fill="#000000" font-family="sans-serif" font-size="14" lengthAdjust="spacing" textLength="4" x="194" y="176.7764">&#160;</text></g><!--entity 04a565d19766ebe0348853b17c395bd1--><g id="elem_04a565d19766ebe0348853b17c395bd1"><rect fill="#F1F1F1" height="78.8906" rx="2.5" ry="2.5" style="stroke:#181818;stroke-width:0.5;" width="74" x="34" y="78.59"/><rect fill="#F1F1F1" height="10" style="stroke:#181818;stroke-width:0.5;" width="15" x="88" y="83.59"/><rect fill="#F1F1F1" height="2" style="stroke:#181818;stroke-width:0.5;" width="4" x="86" y="85.59"/><rect fill="#F1F1F1" height="2" style="stroke:#181818;stroke-width:0.5;" width="4" x="86" y="89.59"/><text fill="#000000" font-family="sans-serif" font-size="14" font-weight="bold" lengthAdjust="spacing" textLength="34" x="49" y="111.5851">web</text><text fill="#000000" font-family="sans-serif" font-size="14" lengthAdjust="spacing" textLength="4" x="49" y="127.882">&#160;</text><text fill="#000000" font-family="sans-serif" font-size="14" lengthAdjust="spacing" textLength="4" x="49" y="144.1789">&#160;</text></g><!--entity f5f243ad317f785375e2f747f020d550--><g id="elem_f5f243ad317f785375e2f747f020d550"><ellipse cx="96" cy="282.08" fill="#F1F1F1" rx="8" ry="8" style="stroke:#181818;stroke-width:0.5;"/><text fill="#000000" font-family="sans-serif" font-size="14" lengthAdjust="spacing" textLength="18" x="87" y="312.0751">80</text></g><!--entity 4ae8434c535c76df893919c2b9c9c766--><g id="elem_4ae8434c535c76df893919c2b9c9c766"><rect fill="#F1F1F1" height="39.2969" rx="2.5" ry="2.5" style="stroke:#181818;stroke-width:0.5;" width="70" x="32" y="507.08"/><polygon fill="#F1F1F1" points="85,512.08,85,526.08,97,526.08,97,518.08,91,512.08,85,512.08" style="stroke:#181818;stroke-width:0.5;"/><line style="stroke:#181818;stroke-width:0.5;" x1="91" x2="91" y1="512.08" y2="518.08"/><line style="stroke:#181818;stroke-width:0.5;" x1="97" x2="91" y1="518.08" y2="518.08"/><text fill="#000000" font-family="sans-serif" font-size="14" lengthAdjust="spacing" textLength="40" x="42" y="533.0751">/code</text></g><!--entity dba3f4d0bb5aa6fcfa18da2c1f7a9775--><g id="elem_dba3f4d0bb5aa6fcfa18da2c1f7a9775"><ellipse cx="182" cy="417.08" fill="#F1F1F1" rx="8" ry="8" style="stroke:#181818;stroke-width:0.5;"/><text fill="#000000" font-family="sans-serif" font-size="14" lengthAdjust="spacing" textLength="18" x="173" y="447.0751">80</text></g><!--entity 58b9e70b65a77700ba66e9c64d6b9f89--><g id="elem_58b9e70b65a77700ba66e9c64d6b9f89"><rect fill="#F1F1F1" height="39.2969" rx="2.5" ry="2.5" style="stroke:#181818;stroke-width:0.5;" width="34" x="50" y="625.37"/><polygon fill="#F1F1F1" points="67,630.37,67,644.37,79,644.37,79,636.37,73,630.37,67,630.37" style="stroke:#181818;stroke-width:0.5;"/><line style="stroke:#181818;stroke-width:0.5;" x1="73" x2="73" y1="630.37" y2="636.37"/><line style="stroke:#181818;stroke-width:0.5;" x1="79" x2="73" y1="636.37" y2="636.37"/><text fill="#000000" font-family="sans-serif" font-size="14" lengthAdjust="spacing" textLength="4" x="60" y="651.3651">.</text></g><!--link 04a565d19766ebe0348853b17c395bd1 to f5f243ad317f785375e2f747f020d550--><g id="link_04a565d19766ebe0348853b17c395bd1_f5f243ad317f785375e2f747f020d550"><path codeLine="24" d="M76.99,157.85 C82.94,196.42 91.62,252.71 94.79,273.22 " fill="none" id="04a565d19766ebe0348853b17c395bd1-f5f243ad317f785375e2f747f020d550" style="stroke:#181818;stroke-width:1.0;"/></g><!--link f5f243ad317f785375e2f747f020d550 to dba3f4d0bb5aa6fcfa18da2c1f7a9775--><g id="link_f5f243ad317f785375e2f747f020d550_dba3f4d0bb5aa6fcfa18da2c1f7a9775"><path codeLine="25" d="M101.12,291 C116.45,314.71 161.86,384.93 177.01,408.36 " fill="none" id="f5f243ad317f785375e2f747f020d550-dba3f4d0bb5aa6fcfa18da2c1f7a9775" style="stroke:#181818;stroke-width:1.0;"/></g><!--link 4ae8434c535c76df893919c2b9c9c766 to 58b9e70b65a77700ba66e9c64d6b9f89--><g id="link_4ae8434c535c76df893919c2b9c9c766_58b9e70b65a77700ba66e9c64d6b9f89"><path codeLine="26" d="M67,546.67 C67,568.29 67,603.46 67,625.09 " fill="none" id="4ae8434c535c76df893919c2b9c9c766-58b9e70b65a77700ba66e9c64d6b9f89" style="stroke:#181818;stroke-width:1.0;"/><text fill="#000000" font-family="sans-serif" font-size="13" lengthAdjust="spacing" textLength="14" x="68" y="591.4369">rw</text></g><!--link 04a565d19766ebe0348853b17c395bd1 to 4ae8434c535c76df893919c2b9c9c766--><g id="link_04a565d19766ebe0348853b17c395bd1_4ae8434c535c76df893919c2b9c9c766"><path codeLine="27" d="M64.02,157.89 C59.59,184.56 54.27,220.84 52,253.08 C45.28,348.36 57.6368,456.6127 63.5468,500.9227 " fill="none" id="04a565d19766ebe0348853b17c395bd1-to-4ae8434c535c76df893919c2b9c9c766" style="stroke:#181818;stroke-width:1.0;stroke-dasharray:7.0,7.0;"/><polygon fill="#181818" points="64.34,506.87,67.115,497.4202,63.679,501.9139,59.1852,498.4778,64.34,506.87" style="stroke:#181818;stroke-width:1.0;"/><text fill="#000000" font-family="sans-serif" font-size="13" lengthAdjust="spacing" textLength="23" x="52" y="354.1469">use</text></g><!--SRC=[XP7BQjmm58RtUWhXLJiGHx9qT1cOGik4BXF6BLcK48waewaXjeFjT0gbxrxLxI9T56_5V_kEyEbflFJTzsuuis5CnAjZg3ZEF5cRW40eJ58hdy41HkrrOrnG80F_mNWS- -Tne67X2W0fM8mgkunQaKjUvv05wU2IYVmBs-rIsEqOwteyqvu_Z_DodcXcD7phfd7eIyoUtzssdpwURjh7p-tDwR2XkNlVjlUtf-DXfZZH8Xlr7-7nmo7rBu-NhsNimjW3-_cNzPx-m3PWB095RmMi64tqJWkbI1ZfVFeNLcW40qbwQmm54aex1of86vM7aEGAUw6LjfIzUSih9zQU3BdHvQ9AscoBnm8rsMgRHICIW60uBLt6kF3gEfQ5gqaZEQrq10NHcfITLrxws0GVVNamXUPLHGgeiauY140qEMQKBc4JPRRehOLN5VLg01SyMH4CeBLMY825oaUZamc-bB5DtAjqjKss9LXJDiTltM9DsIBYUrvDbseRhAvJNR_R_83VUIypLRy0]--></g></svg>